<?xml version="1.0" encoding="UTF-8"?>
<svg version="1.1" xmlns="http://www.w3.org/2000/svg" width="1015" height="781">
<path d="M0 0 C334.95 0 669.9 0 1015 0 C1015 257.73 1015 515.46 1015 781 C680.05 781 345.1 781 0 781 C0 523.27 0 265.54 0 0 Z " fill="#4C1D0D" transform="translate(0,0)"/>
<path d="M0 0 C3.96 0 7.92 0 12 0 C12 20.79 12 41.58 12 63 C15.63 63 19.26 63 23 63 C59.69748351 67.03035946 91.5428908 83.79573441 118 109 C118.78117187 109.71671875 119.56234375 110.4334375 120.3671875 111.171875 C137.23321988 127.13758536 148.24953289 148.40367097 156 170 C156.42152344 171.17433594 156.84304688 172.34867188 157.27734375 173.55859375 C171.61180305 216.88652544 166.24053695 273.71504451 146.38671875 314.46875 C141.64536941 323.89342518 136.6659408 332.79473552 130 341 C129.31679688 341.88300781 128.63359375 342.76601563 127.9296875 343.67578125 C102.98565722 375.28049345 66.69934945 394.7623075 27.1875 401.25 C-13.80866237 406.06542225 -55.54083212 395.78030081 -88.2734375 370.23828125 C-92.66215459 366.6355092 -96.87957279 362.90654243 -101 359 C-102.43666016 357.66001953 -102.43666016 357.66001953 -103.90234375 356.29296875 C-136.85128195 324.94401136 -150.63072729 280.70209481 -152.1262207 236.24804688 C-153.09599982 189.32920978 -141.74870556 146.61007942 -109.05078125 111.734375 C-100.41661346 102.74935407 -91.4623365 94.77976435 -81 88 C-80.34064453 87.57138672 -79.68128906 87.14277344 -79.00195312 86.70117188 C-54.84161146 71.24684465 -28.71494402 63 0 63 C0 42.21 0 21.42 0 0 Z " fill="#DDB478" transform="translate(499,108)"/>
<path d="M0 0 C20.15486122 16.15613675 25.3068455 40.589974 32.07226562 64.32299805 C38.15023515 86.41488008 38.15023515 86.41488008 53 103 C68.82578068 111.60457656 89.10959276 108.90522703 106 105 C107.89697632 104.56494141 107.89697632 104.56494141 109.83227539 104.12109375 C117.25428915 102.40123941 124.64360839 100.59377577 132.0078125 98.640625 C134.28476445 98.04388018 136.56202401 97.44832208 138.83935547 96.85302734 C140.36824371 96.44965692 141.89559897 96.04043247 143.42138672 95.62548828 C168.46077306 88.83921219 168.46077306 88.83921219 177.27392578 93.86816406 C180.98121323 96.76732527 183.46463602 99.33318692 184.41796875 104.08203125 C185.35956067 119.42743468 175.51739206 136.18414722 166.0859375 147.6640625 C149.9221289 165.76510659 132.3926077 177.61508092 109 184.5 C108.14011475 184.75555664 107.28022949 185.01111328 106.39428711 185.27441406 C100.7689979 186.82478934 95.83192008 187.23515807 90 187 C90 187.66 90 188.32 90 189 C91.175625 189.061875 92.35125 189.12375 93.5625 189.1875 C124.80258896 192.79963529 155.04784468 217.3262701 174.234375 240.88671875 C186.63383646 256.67810061 195.19897655 274.59819929 203 293 C203.3403125 292.1028125 203.680625 291.205625 204.03125 290.28125 C220.70433026 247.03911217 250.80016638 213.6591493 293.29296875 194.5390625 C297.94252536 192.53780101 302.71180614 191.09037054 307.5859375 189.7265625 C309.92859522 189.22917665 309.92859522 189.22917665 311 188 C309.94683594 187.78085937 308.89367187 187.56171875 307.80859375 187.3359375 C287.67825848 182.98031965 270.14492865 175.02524568 254 162 C253.22011719 161.38640625 252.44023438 160.7728125 251.63671875 160.140625 C236.35228874 147.43527287 224.38237953 128.36124855 221.66015625 108.5234375 C221.4565366 104.17412185 222.27421196 101.36180525 225 98 C230.6626912 92.66952002 234.05307049 91.74170233 241.70556641 91.81262207 C246.71147108 92.09734356 251.3528637 93.20857962 256.1875 94.484375 C257.21069336 94.74124084 258.23388672 94.99810669 259.28808594 95.26275635 C262.52892726 96.07857772 265.76453588 96.91313336 269 97.75 C297.39413785 105.68147726 297.39413785 105.68147726 326.5625 108.5 C327.52478516 108.51546875 328.48707031 108.5309375 329.47851562 108.546875 C339.10615085 108.49500895 347.24326221 105.6236349 355 100 C356.485 99.505 356.485 99.505 358 99 C359.04785638 97.28390076 359.04785638 97.28390076 360 95 C360.84111328 93.45699219 360.84111328 93.45699219 361.69921875 91.8828125 C368.8208518 78.58200948 372.86250727 64.54410588 376.96875 50.08203125 C382.86199255 29.43861695 389.55378117 8.31516821 409.44140625 -2.94921875 C420.35529372 -8.65452979 429.98312936 -11.12645403 442.0625 -7.375 C456.63220453 -1.9725385 467.70066204 7.87139029 474.40625 21.953125 C486.07953856 48.96457179 481.94950936 80.71813508 471.60717773 107.5715332 C458.20980272 140.64332166 434.7722829 165.67917086 401.93806458 179.8429718 C398.71954838 181.1104436 395.47744456 182.13665455 392.16650391 183.13696289 C390.4288829 183.66417686 390.4288829 183.66417686 388.65615845 184.20204163 C387.77962616 184.46536789 386.90309387 184.72869415 386 185 C386.63960757 185.00146656 387.27921515 185.00293312 387.93820477 185.00444412 C403.50390806 185.04150169 419.06935029 185.10050216 434.63486767 185.18390274 C442.1622624 185.22370605 449.6895524 185.2560919 457.21704102 185.27099609 C463.7782934 185.28400601 470.33931546 185.31095347 476.90043813 185.35461307 C480.3743132 185.37724314 483.84790403 185.39290978 487.32185936 185.39188385 C491.20073176 185.39099955 495.07902314 185.42123305 498.95776367 185.45410156 C500.68406258 185.44655602 500.68406258 185.44655602 502.44523621 185.43885803 C510.18676388 185.54059814 510.18676388 185.54059814 514.21357727 187.81536865 C516 190 516 190 516.625 193.5 C516 197 516 197 513.91497707 199.18715477 C510.26386448 201.45780798 508.02064334 201.50190389 503.73536682 201.50552368 C503.0141003 201.5116138 502.29283378 201.51770392 501.54971069 201.52397859 C499.13770967 201.53956892 496.72670311 201.52679439 494.31469727 201.51416016 C492.58299638 201.51962174 490.85130033 201.52686361 489.11961365 201.53575134 C485.39112194 201.5510924 481.66290543 201.5538885 477.93438911 201.54698563 C472.02816674 201.53619027 466.12223099 201.55359505 460.21604919 201.57479858 C450.86181579 201.60507457 441.50766725 201.61675375 432.15338892 201.62037504 C415.43613295 201.62701037 398.7189372 201.65623355 382.00175327 201.7054714 C376.1423875 201.72188323 370.28314513 201.72740256 364.42375863 201.72388101 C360.75965185 201.72344065 357.09559071 201.73105805 353.43149757 201.74055672 C351.74580318 201.74321567 350.06009925 201.74252893 348.37440872 201.73804665 C313.11413479 201.65085713 283.5378129 212.68627344 257 236 C256.48308594 236.45213867 255.96617187 236.90427734 255.43359375 237.37011719 C235.5654733 255.08630906 224.10603304 279.15324655 216 304 C207.42 304 198.84 304 190 304 C189.01 301.36 188.02 298.72 187 296 C172.2075907 258.81579384 148.7361373 227.40268077 111.22314453 210.89941406 C94.06433863 203.95750313 77.16275444 201.69773023 58.81054688 201.74462891 C57.0024805 201.74187392 55.19441533 201.73819095 53.38635254 201.73365784 C49.51670186 201.72559322 45.6471088 201.72336522 41.77745056 201.72560501 C35.65924406 201.72845239 29.54115165 201.71403634 23.42297363 201.69662476 C6.03395256 201.64972336 -11.35505902 201.62563716 -28.74414062 201.61914062 C-38.36603147 201.61539434 -47.98779153 201.59740918 -57.60962629 201.56404626 C-63.69346497 201.54381254 -69.77696687 201.54147023 -75.86082554 201.55232644 C-79.63704137 201.55492781 -83.41305953 201.54095962 -87.18922424 201.52224541 C-88.94200929 201.51691064 -90.69483044 201.51844207 -92.44760132 201.52728081 C-94.83700299 201.53836067 -97.22506085 201.52502088 -99.61437988 201.50552368 C-100.31047757 201.51464834 -101.00657525 201.523773 -101.7237668 201.53317416 C-105.0246017 201.48061779 -106.75457944 201.18306386 -109.43035126 199.18715477 C-111.72611415 195.98822967 -111.54820168 193.83741174 -111 190 C-108.98025384 187.40223943 -107.78253857 186.16051878 -104.52440262 185.49219131 C-103.59154812 185.48850414 -102.65869362 185.48481697 -101.6975708 185.48101807 C-100.62347458 185.46710526 -99.54937836 185.45319244 -98.44273376 185.43885803 C-97.26957108 185.4438884 -96.09640839 185.44891876 -94.88769531 185.45410156 C-93.64840775 185.44376389 -92.40912018 185.43342621 -91.13227844 185.42277527 C-87.73773228 185.39833709 -84.34400615 185.39151064 -80.94942951 185.39249516 C-77.40059051 185.38936648 -73.85191569 185.36374929 -70.30316162 185.34051514 C-63.58488802 185.29994794 -56.86671149 185.27961281 -50.14833426 185.26654124 C-42.49896501 185.25067357 -34.84976103 185.212259 -27.20048761 185.17194796 C-11.46704086 185.08953924 4.26637315 185.0354533 20 185 C19.04348541 184.73282166 18.08697083 184.46564331 17.10147095 184.19036865 C15.84418182 183.83589661 14.5868927 183.48142456 13.29150391 183.11621094 C12.04623932 182.76653259 10.80097473 182.41685425 9.51797485 182.05657959 C5.27520869 180.78231803 1.34516433 179.19748779 -2.625 177.25 C-3.33736816 176.90638428 -4.04973633 176.56276855 -4.78369141 176.20874023 C-35.50378955 161.02846216 -57.55940192 134.05530684 -68.71875 102 C-73.16248675 88.53574373 -75.21776234 75.36638848 -75.29516602 61.19677734 C-75.30660978 59.74648218 -75.32693924 58.29622656 -75.35668945 56.84619141 C-75.75863254 37.17118947 -70.56846107 19.80195753 -57 5 C-40.78701294 -11.73598664 -18.97491365 -13.0727577 0 0 Z " fill="#DDB477" transform="translate(303,477)"/>
<path d="M0 0 C2.65765136 1.98197729 4.19861893 4.45799377 5.9375 7.25 C6.95462746 8.73261478 7.97683689 10.21175498 9.00390625 11.6875 C9.5055127 12.42226563 10.00711914 13.15703125 10.52392578 13.9140625 C24.98475562 34.34961164 47.84279468 49.17733865 70 60 C71.07894531 60.53109375 72.15789062 61.0621875 73.26953125 61.609375 C113.14351155 79.96181196 159.12195769 78.78924991 199.88623047 64.30200195 C227.60621906 54.05304066 255.84988193 35.55215615 272.87890625 10.91015625 C273.35948486 10.21962158 273.84006348 9.52908691 274.33520508 8.81762695 C275.25825773 7.46864802 276.15916163 6.10416416 277.03393555 4.72338867 C278.296875 2.859375 278.296875 2.859375 281 0 C290.21817389 -1.30951687 300.56621712 2.61788499 308 8 C314.89792936 13.9964178 318.33762375 21.25030105 319.37890625 30.2890625 C320.23911318 54.87433163 306.16709849 76.35921984 290.125 93.75 C277.39019415 107.19982053 262.6868266 117.36619182 246.625 126.4375 C245.53807861 127.0572168 245.53807861 127.0572168 244.42919922 127.68945312 C243.7229541 128.07939453 243.01670898 128.46933594 242.2890625 128.87109375 C241.67756348 129.21068115 241.06606445 129.55026855 240.43603516 129.90014648 C239.63214355 130.26309814 238.82825195 130.6260498 238 131 C237.37235245 131.28846298 236.7447049 131.57692596 236.09803772 131.87413025 C229.61672787 134.48881902 225.08833906 133.72193156 218.48046875 131.88671875 C217.01073357 131.51411674 217.01073357 131.51411674 215.51130676 131.13398743 C212.39683047 130.34167888 209.29217122 129.51732775 206.1875 128.6875 C186.76508396 122.25520743 186.76508396 122.25520743 167.4375 124.8125 C166.633125 125.534375 165.82875 126.25625 165 127 C164.401875 127.515625 163.80375 128.03125 163.1875 128.5625 C160.78029226 131.47648832 160.65710798 134.79842484 160.73046875 138.453125 C162.40380173 154.2649091 170.78890117 168.22825288 181 180 C182.1446875 181.5159375 182.1446875 181.5159375 183.3125 183.0625 C201.1916532 202.60483024 226.5655905 212.9131181 252 218 C248.90547144 219.74418883 245.70692845 220.73236437 242.31542969 221.74902344 C219.4495799 228.73663683 200.05401944 241.51603135 183 258 C182.13632812 258.81210937 181.27265625 259.62421875 180.3828125 260.4609375 C161.81869924 278.33106522 150.04370789 301.15749737 141 325 C139.16409245 322.24613868 137.99603377 319.62146057 136.79345703 316.55566406 C121.72999572 278.17949851 94.35812177 245.43810951 56.60009766 227.88427734 C47.31802825 223.84100254 37.96448652 220.84853549 28 219 C28 218.34 28 217.68 28 217 C29.05960938 216.88785156 29.05960938 216.88785156 30.140625 216.7734375 C59.27717744 213.03985917 84.94312712 199.41017388 104 177 C113.1429514 165.12203372 121.88294672 149.64770724 121.3515625 134.26171875 C120.79985169 130.71237918 119.37933624 128.63656178 117 126 C110.81647246 121.57557943 104.29781961 122.00294934 97 123 C85.88100785 125.21258257 74.94337107 128.32333724 64.03515625 131.390625 C63.34486328 131.58237305 62.65457031 131.77412109 61.94335938 131.97167969 C60.21971399 132.45583969 58.5020734 132.96124648 56.78515625 133.46875 C45.21874694 135.67496552 29.65179768 124.122613 20.5 118 C-4.38850031 100.95257257 -31.1433719 76.09650345 -37.59765625 45.1328125 C-39.06937134 33.67343869 -39.0476256 23.43796753 -32.375 13.60546875 C-24.98730289 4.32467426 -12.0936279 -2.37497602 0 0 Z " fill="#A2411B" transform="translate(365,447)"/>
<path d="M0 0 C334.95 0 669.9 0 1015 0 C1015 12.54 1015 25.08 1015 38 C680.05 38 345.1 38 0 38 C0 25.46 0 12.92 0 0 Z " fill="#FFFFFF" transform="translate(0,0)"/>
<path d="M0 0 C13.42933125 9.81024028 18.3451555 23.63951504 22.9296875 39.05859375 C23.71166547 41.62038787 24.49533251 44.18160535 25.28125 46.7421875 C25.57816238 47.71260231 25.57816238 47.71260231 25.881073 48.70262146 C27.97007678 55.52578375 30.10598738 62.33239259 32.3046875 69.12109375 C32.80790527 70.73177734 32.80790527 70.73177734 33.32128906 72.375 C37.9891728 86.64169336 45.40208522 98.77553266 58.80102539 106.14770508 C68.44467662 110.87424739 77.79794808 112.1808381 88.4296875 111.99609375 C89.5640625 112.00318359 90.6984375 112.01027344 91.8671875 112.01757812 C108.48646228 111.89647354 124.5797964 107.55690024 140.65820312 103.74243164 C143.83346984 102.98926665 147.01032317 102.24310898 150.1875 101.49804688 C152.22926093 101.01732729 154.27093102 100.53622165 156.3125 100.0546875 C157.2511087 99.83380966 158.18971741 99.61293182 159.1567688 99.38536072 C163.00291062 98.4715986 166.823718 97.53952105 170.61279297 96.41040039 C173.77533266 95.53202903 176.41456944 95.3993197 179.6796875 95.55859375 C179.222007 102.11438339 178.01030551 107.11528025 175.1171875 112.99609375 C174.75786133 113.73690186 174.39853516 114.47770996 174.02832031 115.2409668 C170.9551929 121.37447285 167.38252256 126.54442118 162.6796875 131.55859375 C161.79539062 132.533125 160.91109375 133.50765625 160 134.51171875 C149.38195491 145.88819563 137.24621252 153.10453772 122.6796875 158.55859375 C121.72578125 158.92597656 120.771875 159.29335938 119.7890625 159.671875 C86.51203673 171.19426761 46.228652 169.66366423 14.25634766 154.73999023 C-12.78796356 141.39485194 -33.17456081 119.12704496 -43.62792969 90.6796875 C-46.08815494 83.14286205 -47.69268131 75.31044748 -49.3203125 67.55859375 C-49.50062012 66.75542725 -49.68092773 65.95226074 -49.86669922 65.12475586 C-53.31350871 45.62560916 -50.3391671 25.08687565 -39.3203125 8.55859375 C-29.1198638 -4.01125052 -14.45391996 -8.97895028 0 0 Z " fill="#CA6D34" transform="translate(292.3203125,487.44140625)"/>
<path d="M0 0 C12.54046311 6.85806576 18.96814924 17.8089804 22.90625 31.16796875 C29.98205794 59.37292539 21.50632449 90.52786262 7 115.09375 C-12.49944839 144.55110174 -38.976336 160.11713832 -73 167.09375 C-104.66859389 173.23541666 -142.36053166 168.69075294 -169.58129883 150.62426758 C-181.96232722 141.9133734 -191.91990669 131.517473 -199 118.09375 C-199.51433594 117.12179687 -200.02867187 116.14984375 -200.55859375 115.1484375 C-203.39300873 109.38325349 -204.68447629 104.50939885 -205 98.09375 C-198.45169782 98.76077842 -192.22809521 100.13165953 -185.84375 101.7109375 C-184.25294617 102.09767136 -184.25294617 102.09767136 -182.63000488 102.49221802 C-179.25229367 103.313521 -175.87600083 104.14044651 -172.5 104.96875 C-145.0595509 112.0922198 -145.0595509 112.0922198 -116.9375 114.53125 C-115.72521729 114.52295166 -114.51293457 114.51465332 -113.26391602 114.50610352 C-99.41045349 114.24492787 -88.17186262 111.74592221 -77 103.09375 C-76.35675781 102.60519531 -75.71351563 102.11664062 -75.05078125 101.61328125 C-62.02698843 90.22843764 -57.92998539 69.83621826 -53 54.09375 C-39.40444177 10.77163345 -39.40444177 10.77163345 -24.81640625 1.7421875 C-16.81265129 -2.34046182 -8.47867957 -3.6923282 0 0 Z " fill="#CA6D34" transform="translate(745,484.90625)"/>
<path d="M0 0 C15.18 0 30.36 0 46 0 C48.97 5.61 51.94 11.22 55 17 C57.62219297 20.50911118 60.13301142 23.74350963 63 27 C63.763125 28.010625 64.52625 29.02125 65.3125 30.0625 C83.1916532 49.60483024 108.5655905 59.9131181 134 65 C130.90547144 66.74418883 127.70692845 67.73236437 124.31542969 68.74902344 C101.4495799 75.73663683 82.05401944 88.51603135 65 105 C64.13632812 105.81210937 63.27265625 106.62421875 62.3828125 107.4609375 C43.81869924 125.33106522 32.04370789 148.15749737 23 172 C21.16409245 169.24613868 19.99603377 166.62146057 18.79345703 163.55566406 C3.72999572 125.17949851 -23.64187823 92.43810951 -61.39990234 74.88427734 C-70.68197175 70.84100254 -80.03551348 67.84853549 -90 66 C-90 65.34 -90 64.68 -90 64 C-89.29359375 63.92523437 -88.5871875 63.85046875 -87.859375 63.7734375 C-58.75041068 60.04339433 -33.01944687 46.42299331 -14 24 C-8.30635422 16.53576926 -4.19983349 8.39966698 0 0 Z " fill="#4B1D0D" transform="translate(483,600)"/>
<path d="M0 0 C0 27.72 0 55.44 0 84 C-41.58 84 -83.16 84 -126 84 C-117.78135134 67.56270269 -109.43555366 54.89612972 -97 42 C-96.28457031 41.22140625 -95.56914062 40.4428125 -94.83203125 39.640625 C-70.71918114 14.12533895 -34.55660091 0 0 0 Z " fill="#A2411B" transform="translate(499,184)"/>
<path d="M0 0 C8.72895932 0 15.79174944 0.11169744 24.0625 2 C25.04347656 2.22002686 26.02445313 2.44005371 27.03515625 2.66674805 C46.92290671 7.39040914 65.93822862 16.35255727 82 29 C82.90234375 29.69867188 83.8046875 30.39734375 84.734375 31.1171875 C100.37899083 43.53565374 111.98419035 57.89927431 122 75 C122.45632813 75.75925781 122.91265625 76.51851563 123.3828125 77.30078125 C126 81.72071678 126 81.72071678 126 84 C84.42 84 42.84 84 0 84 C0 56.28 0 28.56 0 0 Z " fill="#A2411B" transform="translate(511,184)"/>
<path d="M0 0 C15.18 0 30.36 0 46 0 C48.97 5.61 51.94 11.22 55 17 C57.62219297 20.50911118 60.13301142 23.74350963 63 27 C63.763125 28.010625 64.52625 29.02125 65.3125 30.0625 C71.24737466 36.54945603 78.52309616 41.77417759 85.63671875 46.90625 C86.08660156 47.2671875 86.53648437 47.628125 87 48 C87 48.33 87 48.66 87 49 C80.4168791 49.20321332 73.83456904 49.34308869 67.24902344 49.43945312 C65.01010924 49.47963046 62.77140425 49.53418502 60.53320312 49.60351562 C57.31067315 49.70082115 54.09092076 49.74598331 50.8671875 49.78125 C49.87008759 49.82254028 48.87298767 49.86383057 47.84567261 49.90637207 C40.97556458 49.91078584 40.97556458 49.91078584 38.12945557 47.25366211 C36.56298828 45.10742188 36.56298828 45.10742188 35.30886841 42.9666748 C33.04397915 39.56350561 29.83025734 38.15412651 26 37 C21.04854683 36.09112906 16.94061577 36.91085026 12.62002563 39.58703613 C10.72870742 41.23661762 9.73775909 42.95747665 8.45458984 45.10742188 C6.63495791 47.57933756 5.65113543 48.80108068 2.69122314 49.70532227 C-0.12056035 49.92514888 -2.83055695 49.90055678 -5.6484375 49.78125 C-6.66096588 49.76993042 -7.67349426 49.75861084 -8.71670532 49.74694824 C-11.93809437 49.70230474 -15.15496602 49.60196373 -18.375 49.5 C-20.56373762 49.4598575 -22.75254529 49.42335808 -24.94140625 49.390625 C-30.2958017 49.30261123 -35.64757818 49.16889988 -41 49 C-37.93663614 45.9011299 -34.91244011 43.0657542 -31.4375 40.4375 C-16.94843843 28.90230961 -8.31555104 16.63110208 0 0 Z " fill="#491D0D" transform="translate(483,600)"/>
<path d="M0 0 C5.13871075 2.26103273 8.86330626 5.63012842 11.92578125 10.33984375 C11.92578125 10.99984375 11.92578125 11.65984375 11.92578125 12.33984375 C12.49381973 12.30955078 13.06185822 12.27925781 13.64710999 12.24804688 C19.6330759 11.9374735 25.6194912 11.68855715 31.60961914 11.47314453 C33.83586401 11.38531089 36.06157534 11.28248063 38.28637695 11.16357422 C53.06061862 10.38650689 62.53811048 11.23025106 74.92578125 19.33984375 C77.9704867 20.69899268 81.05126968 21.74443246 84.23828125 22.71484375 C84.99028809 22.95541504 85.74229492 23.19598633 86.51708984 23.44384766 C91.92899271 25.13732858 97.32272792 26.43612547 102.92578125 27.33984375 C102.92578125 27.66984375 102.92578125 27.99984375 102.92578125 28.33984375 C72.89578125 28.33984375 42.86578125 28.33984375 11.92578125 28.33984375 C11.26578125 29.98984375 10.60578125 31.63984375 9.92578125 33.33984375 C8.0859375 35.32421875 8.0859375 35.32421875 5.98828125 37.08984375 C5.29863281 37.6828125 4.60898437 38.27578125 3.8984375 38.88671875 C-0.31912801 41.99351948 -5.04792764 41.93676989 -10.07421875 41.33984375 C-14.25684156 39.3321848 -16.43909206 36.8569334 -19.15919495 33.24035645 C-21.81520645 30.19558847 -23.46745198 28.79083182 -27.52256775 28.37780762 C-29.21151763 28.35484759 -30.90143066 28.37538704 -32.58959961 28.43164062 C-33.517211 28.43047241 -34.44482239 28.4293042 -35.40054321 28.42810059 C-38.44827186 28.43364773 -41.49202298 28.49573777 -44.5390625 28.55859375 C-46.65895958 28.57352433 -48.77888436 28.58490749 -50.89881897 28.59289551 C-56.46441563 28.62336495 -62.02832813 28.7018845 -67.59326172 28.79052734 C-73.27743752 28.87253017 -78.96188689 28.90893789 -84.64648438 28.94921875 C-95.78980036 29.0348827 -106.93186923 29.17132785 -118.07421875 29.33984375 C-118.07421875 28.67984375 -118.07421875 28.01984375 -118.07421875 27.33984375 C-117.3678125 27.26507812 -116.66140625 27.1903125 -115.93359375 27.11328125 C-108.85597844 26.20635064 -102.11053106 24.69112453 -95.26171875 22.71484375 C-94.49375977 22.5039209 -93.72580078 22.29299805 -92.93457031 22.07568359 C-88.14980796 20.6433963 -84.15734299 18.8061553 -79.858078 16.24502563 C-68.6708902 9.82211535 -58.01216328 10.67373213 -45.44921875 11.33984375 C-41.35304175 11.55332529 -37.25980682 11.71241411 -33.16015625 11.83984375 C-32.23512299 11.90623047 -31.31008972 11.97261719 -30.35702515 12.04101562 C-25.32473769 12.23163845 -25.32473769 12.23163845 -21.23516846 9.61132812 C-19.63608569 7.50893022 -19.63608569 7.50893022 -18.36172485 5.31640625 C-14.27699669 -0.9544149 -6.79719611 -2.16332607 0 0 Z " fill="#AB461C" transform="translate(511.07421875,636.66015625)"/>
<path d="M0 0 C4.62 0 9.24 0 14 0 C14 67.65 14 135.3 14 205 C2.29221264 201.09740421 2.29221264 201.09740421 0 199 C-0.50158716 196.16529957 -0.65526759 193.92264715 -0.60127258 191.08442688 C-0.60554471 190.26923669 -0.60981683 189.45404649 -0.61421841 188.61415356 C-0.62247777 185.87283154 -0.59491589 183.13302756 -0.56762695 180.3918457 C-0.56621712 178.43083736 -0.5670072 176.46982638 -0.56983948 174.50881958 C-0.57127754 169.17629282 -0.54182446 163.84432527 -0.50696969 158.5119288 C-0.47577122 152.94256673 -0.47278059 147.37319268 -0.46684265 141.80375671 C-0.45128506 131.25331595 -0.41023058 120.70313339 -0.3600952 110.15280646 C-0.30426138 98.14332832 -0.27673023 86.13383802 -0.25161803 74.12426245 C-0.19931649 49.41603166 -0.11133692 24.70803028 0 0 Z " fill="#4D2213" transform="translate(438,281)"/>
<path d="M0 0 C4.29 0 8.58 0 13 0 C13 70.95 13 141.9 13 215 C8.71 215 4.42 215 0 215 C0 144.05 0 73.1 0 0 Z " fill="#481E0F" transform="translate(486,281)"/>
<path d="M0 0 C4.29 0 8.58 0 13 0 C13 66 13 132 13 200 C3 205 3 205 0 205 C0 137.35 0 69.7 0 0 Z " fill="#4C1E0F" transform="translate(558,281)"/>
<path d="M0 0 C4.62 0 9.24 0 14 0 C14 63.69 14 127.38 14 193 C3 186 3 186 0 184 C-0.29470065 181.50943669 -0.39143903 179.26688652 -0.36076355 176.7741394 C-0.36332682 176.02105692 -0.3658901 175.26797444 -0.36853105 174.49207127 C-0.37349328 171.95527472 -0.35693637 169.41906642 -0.34057617 166.88232422 C-0.33973042 165.06924453 -0.34020402 163.25616381 -0.34190369 161.44308472 C-0.34276711 156.50938689 -0.32508534 151.5759063 -0.30418181 146.64225912 C-0.2854727 141.49061264 -0.28366913 136.33896159 -0.28010559 131.18728638 C-0.27076813 121.42666418 -0.24613139 111.66614236 -0.21605712 101.90556443 C-0.18256595 90.79570728 -0.16604041 79.68584542 -0.15097082 68.57595038 C-0.11958329 45.71724264 -0.06618802 22.85863117 0 0 Z " fill="#4C1E0F" transform="translate(414,281)"/>
<path d="M0 0 C3.96 0 7.92 0 12 0 C12 70.62 12 141.24 12 214 C8.04 214 4.08 214 0 214 C0 143.38 0 72.76 0 0 Z " fill="#42180C" transform="translate(511,282)"/>
<path d="M0 0 C3.96 0 7.92 0 12 0 C12 69.63 12 139.26 12 211 C4 210 4 210 0 209 C0 140.03 0 71.06 0 0 Z " fill="#43190C" transform="translate(463,282)"/>
<path d="M0 0 C3.96 0 7.92 0 12 0 C12 68.97 12 137.94 12 209 C4 211 4 211 0 211 C0 141.37 0 71.74 0 0 Z " fill="#42190C" transform="translate(535,282)"/>
<path d="M0 0 C4.29 0 8.58 0 13 0 C13.28048429 23.70444167 13.49201058 47.40863422 13.62174606 71.11440182 C13.68358974 82.12183584 13.76788126 93.12823808 13.90527344 104.13500977 C14.02498669 113.73007115 14.1023228 123.3243853 14.12906194 132.92017275 C14.14469037 138.0002482 14.18133582 143.07818628 14.26876068 148.15757561 C14.35045051 152.94269859 14.37529619 157.72481265 14.35729218 162.51056671 C14.36058354 164.26302791 14.38432659 166.01559353 14.4304657 167.76745033 C14.75366299 180.67622101 14.75366299 180.67622101 11.77301884 184.62587285 C8.92090955 187.42152508 4.10436738 192 0 192 C0 128.64 0 65.28 0 0 Z " fill="#43180C" transform="translate(583,282)"/>
<path d="M0 0 C4.29 0 8.58 0 13 0 C13.20864623 20.54085071 13.36910604 41.0814448 13.46630955 61.6231432 C13.51264965 71.16180892 13.57578779 80.69980275 13.67895508 90.23803711 C13.76886927 98.55495836 13.82677302 106.87139287 13.84679645 115.18878669 C13.85849544 119.59007693 13.88584097 123.98997515 13.95157051 128.39081764 C14.01304015 132.54038771 14.03143029 136.68800384 14.01796913 140.83798599 C14.02042852 142.35411546 14.03811072 143.87031584 14.07284927 145.38604927 C14.27846278 154.82718199 12.9141832 160.7305337 6.32345486 167.85781384 C4 170 4 170 0 173 C0 115.91 0 58.82 0 0 Z " fill="#4A1D0E" transform="translate(607,281)"/>
<path d="M0 0 C4.29 0 8.58 0 13 0 C13 56.43 13 112.86 13 171 C0.54230822 160.32197847 0.54230822 160.32197847 -0.52610397 153.77728271 C-0.73985857 149.7305951 -0.74335717 145.7293826 -0.68115234 141.6796875 C-0.67945789 140.1317298 -0.68041382 138.58376729 -0.68380737 137.03581238 C-0.68552281 132.85210806 -0.65034757 128.66944432 -0.60836363 124.48598099 C-0.57075327 120.10716332 -0.56732318 115.7283195 -0.56021118 111.34936523 C-0.54159248 103.06560783 -0.4923961 94.78232782 -0.43211424 86.49878025 C-0.36495614 77.06474267 -0.33203678 67.63068181 -0.30194163 58.19646454 C-0.23929412 38.79736526 -0.13260308 19.39873858 0 0 Z " fill="#44190B" transform="translate(390,282)"/>
<path d="M0 0 C3.63 0 7.26 0 11 0 C18.2285689 16.45122577 19.21251763 33.14558372 19.1875 50.875 C19.18722809 51.60032928 19.18695618 52.32565857 19.18667603 53.07296753 C19.16595043 65.133106 18.70588331 77.0482867 17 89 C16.89816406 89.71349609 16.79632812 90.42699219 16.69140625 91.16210938 C14.63715413 104.8190818 10.49993082 117.62143899 5.3125 130.375 C5.01504883 131.10710693 4.71759766 131.83921387 4.41113281 132.59350586 C3.19517441 135.49779697 2.24806404 137.75193596 0 140 C0 93.8 0 47.6 0 0 Z " fill="#461A0C" transform="translate(631,281)"/>
<path d="M0 0 C3.3 0 6.6 0 10 0 C10 45.21 10 90.42 10 137 C-0.87101758 122.50530989 -4.57799015 100.61614086 -7 83 C-7.09571289 82.32775391 -7.19142578 81.65550781 -7.29003906 80.96289062 C-8.29012726 72.72560507 -8.22182225 64.42998676 -8.24023438 56.14453125 C-8.24987621 53.53352197 -8.28094926 50.9233234 -8.3125 48.3125 C-8.41483964 32.06267449 -6.29232643 16.42403245 -1 1 C-0.67 0.67 -0.34 0.34 0 0 Z " fill="#461A0C" transform="translate(368,281)"/>
<path d="M0 0 C4.75073125 4.21579636 6.51106688 10.43991127 7.25 16.5625 C6.39262186 23.17655994 4.17684501 29.62047949 -1.1875 33.9375 C-6.74463593 37.02266857 -12.81827348 39.32627871 -19.1875 37.9375 C-25.86971298 35.46710611 -30.8052274 32.6708364 -34.08203125 26.16015625 C-36.24517462 21.17208592 -37.26245568 16.32116236 -36.1875 10.9375 C-33.30806646 3.87075833 -29.22624512 -0.99907854 -22.1875 -4.0625 C-13.66878697 -6.63638016 -7.31932683 -4.73603501 0 0 Z " fill="#B1491E" transform="translate(739.1875,360.0625)"/>
<path d="M0 0 C4.81951281 2.42578583 7.93762762 6.41485975 9.76171875 11.38671875 C10.75433515 17.86484681 10.45812872 23.96558251 7.1015625 29.69921875 C3.84578875 33.7997851 -0.10679135 36.38229922 -5.23828125 37.38671875 C-11.18320197 37.98121082 -14.48674723 37.29821476 -19.41015625 33.88671875 C-23.61460229 30.43691687 -26.86892716 26.79567532 -27.4765625 21.1875 C-27.66048393 15.02129198 -26.92102581 10.43926464 -23.23828125 5.38671875 C-16.75369514 -1.26329048 -8.98323235 -2.46137431 0 0 Z " fill="#B0491E" transform="translate(293.23828125,323.61328125)"/>
<path d="M0 0 C4.62 0 9.24 0 14 0 C14 63.69 14 127.38 14 193 C11.03 191.02 8.06 189.04 5 187 C8 187 8 187 11 189 C11.33 127.29 11.66 65.58 12 2 C8.7 2 5.4 2 2 2 C2 62.06 2 122.12 2 184 C1.34 184 0.68 184 0 184 C0 123.28 0 62.56 0 0 Z " fill="#4A2618" transform="translate(414,281)"/>
<path d="M0 0 C4.29 0 8.58 0 13 0 C13 65.67 13 131.34 13 199 C12.67 199 12.34 199 12 199 C12 133.99 12 68.98 12 2 C8.7 2 5.4 2 2 2 C2 68.33 2 134.66 2 203 C4.475 202.01 4.475 202.01 7 201 C7 201.66 7 202.32 7 203 C4.35261084 204.4606285 3.10551666 205 0 205 C0 137.35 0 69.7 0 0 Z " fill="#36160D" transform="translate(558,281)"/>
<path d="M0 0 C3.17852316 1.64448689 5.37801764 3.75603527 7 7 C7.41849303 11.5470877 7.53618367 15.67365093 5.8125 19.9375 C3.13686222 22.98219126 0.98322488 24.6994003 -3.11328125 25.3203125 C-7.19149985 25.52593697 -9.6443121 25.17125714 -13.375 23.375 C-17.09718556 20.0073083 -18.60393137 17.02435079 -19.5625 12.125 C-18.73322768 7.51793156 -16.13478321 4.40278281 -13 1 C-9.03716439 -0.98141781 -4.30789762 -0.55820645 0 0 Z " fill="#491D0E" transform="translate(730,364)"/>
<path d="M0 0 C4.29 0 8.58 0 13 0 C13.06937098 20.69646263 13.12294484 41.39289737 13.15543652 62.08945274 C13.17092224 71.69867275 13.19204422 81.30781931 13.22631836 90.91699219 C13.25616865 99.28985632 13.27556259 107.66266728 13.28226548 116.03558314 C13.28618519 120.47125175 13.29543215 124.90676819 13.31719017 129.34238815 C13.33748642 133.51363407 13.34384781 137.68466452 13.33932304 141.85595512 C13.34015134 143.39028149 13.34615781 144.92461474 13.35761642 146.45889854 C13.37245387 148.54727955 13.36898658 150.63483765 13.36076355 152.72323608 C13.36352893 153.89391317 13.36629431 155.06459026 13.36914349 156.27074242 C13.24732614 157.17139742 13.12550879 158.07205242 13 159 C11.515 159.99 11.515 159.99 10 161 C10.495 82.295 10.495 82.295 11 2 C7.7 2 4.4 2 1 2 C1.33 58.1 1.66 114.2 2 172 C1.34 172.33 0.68 172.66 0 173 C0 115.91 0 58.82 0 0 Z " fill="#2E0B04" transform="translate(607,281)"/>
<path d="M0 0 C3.3 0 6.6 0 10 0 C10 27.72 10 55.44 10 84 C-31.58 84 -73.16 84 -116 84 C-114.02 80.04 -112.04 76.08 -110 72 C-109.67 72.66 -109.34 73.32 -109 74 C-110.32 76.64 -111.64 79.28 -113 82 C-73.07 82 -33.14 82 8 82 C8 55.27 8 28.54 8 1 C5.36 1 2.72 1 0 1 C0 0.67 0 0.34 0 0 Z " fill="#9D3713" transform="translate(489,184)"/>
<path d="M0 0 C2.97 0 5.94 0 9 0 C9 0.33 9 0.66 9 1 C6.69 1 4.38 1 2 1 C2 27.73 2 54.46 2 82 C42.92 82 83.84 82 126 82 C126 82.66 126 83.32 126 84 C84.42 84 42.84 84 0 84 C0 56.28 0 28.56 0 0 Z " fill="#9D3814" transform="translate(511,184)"/>
<path d="M0 0 C4.35085725 0.36257144 5.74689899 1.2235961 8.75 4.3125 C10.96519291 7.13183643 10.74208516 8.56181762 10.625 12.25 C10.0163904 16.18029814 8.59244265 18.47005735 5.75 21.3125 C2.61128812 22.88185594 0.21144178 22.66451103 -3.25 22.3125 C-6.40442052 19.70667435 -8.95023287 17.49223529 -9.5234375 13.32421875 C-9.72157651 8.78988373 -9.78156961 6.96673952 -6.8125 3.3125 C-5.966875 2.6525 -5.12125 1.9925 -4.25 1.3125 C-3.25 0.3125 -3.25 0.3125 0 0 Z " fill="#471D0E" transform="translate(505.25,645.6875)"/>
<path d="M0 0 C2.9375 1.4375 2.9375 1.4375 5 4 C5.89487669 8.27813857 5.70907738 11.73599249 3.5625 15.5625 C-0.26994213 17.71240656 -3.71090495 17.75551032 -8 17 C-10.5625 15.5 -10.5625 15.5 -12 13 C-12.7099846 8.0301078 -12.79117716 6.15080314 -9.9375 2 C-6.23727467 -0.51930235 -4.3968344 -0.7066341 0 0 Z " fill="#461C0D" transform="translate(288,333)"/>
<path d="M0 0 C1.77226453 0.28284018 3.542788 0.57660498 5.3125 0.875 C6.29863281 1.03742187 7.28476562 1.19984375 8.30078125 1.3671875 C11 2 11 2 14 4 C-28.9 4 -71.8 4 -116 4 C-116 3.67 -116 3.34 -116 3 C-77.39 2.67 -38.78 2.34 1 2 C0.505 1.01 0.505 1.01 0 0 Z " fill="#1B0100" transform="translate(312,659)"/>
<path d="M0 0 C30.69 0 61.38 0 93 0 C93 0.33 93 0.66 93 1 C67.92 1 42.84 1 17 1 C17.33 2.32 17.66 3.64 18 5 C11.80759538 4.31195504 5.98044406 2.71951285 0 1 C0 0.67 0 0.34 0 0 Z " fill="#2E110A" transform="translate(395,665)"/>
<path d="M0 0 C31.02 0 62.04 0 94 0 C90.46629579 1.76685211 87.19202145 3.00433454 83.4375 4.1875 C82.30183594 4.55230469 81.16617188 4.91710937 79.99609375 5.29296875 C77 6 77 6 74 5 C76.64 4.01 79.28 3.02 82 2 C54.94 2 27.88 2 0 2 C0 1.34 0 0.68 0 0 Z " fill="#290E09" transform="translate(523,665)"/>
<path d="M0 0 C1.81986672 0.02622878 3.63974761 0.05149061 5.4596405 0.07583618 C10.20584313 0.14188404 14.95174075 0.22090125 19.69769287 0.30279541 C24.55811017 0.38431077 29.41870417 0.45331823 34.27929688 0.5234375 C43.78406572 0.66236806 53.28855906 0.81502641 62.79296875 0.9765625 C62.79296875 1.3065625 62.79296875 1.6365625 62.79296875 1.9765625 C61.33956337 1.9920237 61.33956337 1.9920237 59.85679626 2.00779724 C50.66382489 2.10613983 41.47091211 2.20892307 32.27803707 2.31590176 C27.55346162 2.37074364 22.82887974 2.42409527 18.10424805 2.47387695 C13.53301449 2.52209991 8.96184417 2.57445178 4.39068794 2.62950325 C2.65867275 2.64966807 0.92664042 2.66841871 -0.80540657 2.68563652 C-11.30945388 2.79115729 -21.73307929 3.14479581 -32.20703125 3.9765625 C-32.20703125 3.3165625 -32.20703125 2.6565625 -32.20703125 1.9765625 C-21.38786237 -0.21033857 -10.98253126 -0.20625564 0 0 Z " fill="#BE4D1F" transform="translate(425.20703125,662.0234375)"/>
<path d="M0 0 C0 0.33 0 0.66 0 1 C-18.81 1.99 -18.81 1.99 -38 3 C-38 2.34 -38 1.68 -38 1 C-25.44669425 -2.0197813 -12.76404381 -0.75495104 0 0 Z " fill="#B15025" transform="translate(431,663)"/>
<path d="M0 0 C0 3 0 3 -1.96875 5.26171875 C-2.8040625 6.06222656 -3.639375 6.86273438 -4.5 7.6875 C-5.3353125 8.49574219 -6.170625 9.30398438 -7.03125 10.13671875 C-8.00578125 11.05904297 -8.00578125 11.05904297 -9 12 C-9.99 11.67 -10.98 11.34 -12 11 C-8.04 7.37 -4.08 3.74 0 0 Z " fill="#AE461C" transform="translate(625,473)"/>
<path d="M0 0 C-5.54165256 3.77304004 -9.34454208 4.54330269 -16 4 C-13.21769572 2.14513048 -11.15636393 1.27537888 -8 0.3125 C-6.700625 -0.09548828 -6.700625 -0.09548828 -5.375 -0.51171875 C-3 -1 -3 -1 0 0 Z " fill="#3B150A" transform="translate(705,658)"/>
<path d="M0 0 C-0.99 1.485 -0.99 1.485 -2 3 C-4.1640625 3.29296875 -4.1640625 3.29296875 -6.625 3.1875 C-7.44226563 3.16042969 -8.25953125 3.13335938 -9.1015625 3.10546875 C-10.04128906 3.05326172 -10.04128906 3.05326172 -11 3 C-10 1 -10 1 -6.625 -0.1875 C-3 -1 -3 -1 0 0 Z " fill="#A43E17" transform="translate(420,660)"/>
<path d="M0 0 C1.39195915 4.17587745 -0.17676781 6.13474776 -2 10 C-2.66 9.67 -3.32 9.34 -4 9 C-4.125 6.125 -4.125 6.125 -4 3 C-3.34 2.34 -2.68 1.68 -2 1 C-1.67 1.33 -1.34 1.66 -1 2 C-0.67 1.34 -0.34 0.68 0 0 Z " fill="#41170C" transform="translate(636,407)"/>
<path d="M0 0 C1.77226453 0.28284018 3.542788 0.57660498 5.3125 0.875 C6.29863281 1.03742187 7.28476562 1.19984375 8.30078125 1.3671875 C11 2 11 2 14 4 C4.41885965 4.56359649 4.41885965 4.56359649 0 1 C0 0.67 0 0.34 0 0 Z " fill="#2C0F09" transform="translate(312,659)"/>
<path d="M0 0 C0.66 0.33 1.32 0.66 2 1 C-0.97 4.3 -3.94 7.6 -7 11 C-7 6.46153846 -7 6.46153846 -6 4 C-3.5 2.3125 -3.5 2.3125 -1 1 C-0.67 0.67 -0.34 0.34 0 0 Z " fill="#310D05" transform="translate(703,479)"/>
</svg>
